<?xml version="1.0" encoding="UTF-8" standalone="no"?>
<!DOCTYPE svg PUBLIC "-//W3C//DTD SVG 1.1//EN" "http://www.w3.org/Graphics/SVG/1.1/DTD/svg11.dtd">
<svg width="100%" height="100%" viewBox="0 0 86 28" version="1.1" xmlns="http://www.w3.org/2000/svg" xmlns:xlink="http://www.w3.org/1999/xlink" xml:space="preserve" xmlns:serif="http://www.serif.com/" style="fill-rule:evenodd;clip-rule:evenodd;stroke-linejoin:round;stroke-miterlimit:2;">
    <g transform="matrix(0.897599,0,0,1,0,0)">
        <path d="M86,7.975C86,3.573 82.019,0 77.116,0L8.884,0C3.981,0 0,3.573 0,7.975L0,20.025C0,24.427 3.981,28 8.884,28L77.116,28C82.019,28 86,24.427 86,20.025L86,7.975Z" style="fill:rgb(28,92,218);"/>
    </g>
    <g transform="matrix(0.893877,0,0,0.893877,17.3686,14)">
        <g transform="matrix(1,0,0,1,-12,-12)">
            <path d="M12,2C6.489,2 2,6.489 2,12C2,17.511 6.489,22 12,22C17.511,22 22,17.511 22,12C22,6.489 17.511,2 12,2ZM12,4C16.43,4 20,7.57 20,12C20,16.014 17.065,19.313 13.219,19.898L13.219,14.385L15.547,14.385L15.912,12.02L13.219,12.02L13.219,10.727C13.219,9.744 13.539,8.871 14.459,8.871L15.936,8.871L15.936,6.807C15.676,6.772 15.127,6.695 14.09,6.695C11.924,6.695 10.654,7.839 10.654,10.445L10.654,12.02L8.428,12.02L8.428,14.385L10.654,14.385L10.654,19.879C6.87,19.241 4,15.97 4,12C4,7.57 7.57,4 12,4Z" style="fill:white;fill-rule:nonzero;"/>
        </g>
    </g>
    <g transform="matrix(1,0,0,1,-4.04042,5.00282)">
        <text x="36.825px" y="14.002px" style="font-family:'HelveticaNeue-Medium', 'Helvetica Neue', sans-serif;font-weight:500;font-size:13px;fill:white;">Shar<tspan x="64.281px " y="14.002px ">e</tspan></text>
    </g>
</svg>
