<?xml version="1.0" encoding="UTF-8" standalone="no"?>
<!DOCTYPE svg PUBLIC "-//W3C//DTD SVG 1.1//EN" "http://www.w3.org/Graphics/SVG/1.1/DTD/svg11.dtd">
<svg width="100%" height="100%" viewBox="0 0 86 28" version="1.1" xmlns="http://www.w3.org/2000/svg" xmlns:xlink="http://www.w3.org/1999/xlink" xml:space="preserve" xmlns:serif="http://www.serif.com/" style="fill-rule:evenodd;clip-rule:evenodd;stroke-linejoin:round;stroke-miterlimit:2;">
    <path d="M86,12.984C86,5.818 80.182,0 73.016,0L12.984,0C5.818,0 0,5.818 0,12.984L0,15.016C0,22.182 5.818,28 12.984,28L73.016,28C80.182,28 86,22.182 86,15.016L86,12.984Z" style="fill:url(#_Linear1);"/>
    <g transform="matrix(1,0,0,1,18.6658,14)">
        <g transform="matrix(1,0,0,1,-12,-12)">
            <g id="surface3990348">
                <path d="M8,3C5.242,3 3,5.242 3,8L3,16C3,18.758 5.242,21 8,21L16,21C18.758,21 21,18.758 21,16L21,8C21,5.242 18.758,3 16,3L8,3ZM8,5L16,5C17.652,5 19,6.348 19,8L19,16C19,17.652 17.652,19 16,19L8,19C6.348,19 5,17.652 5,16L5,8C5,6.348 6.348,5 8,5ZM17,6C16.449,6 16,6.449 16,7C16,7.551 16.449,8 17,8C17.551,8 18,7.551 18,7C18,6.449 17.551,6 17,6ZM12,7C9.242,7 7,9.242 7,12C7,14.758 9.242,17 12,17C14.758,17 17,14.758 17,12C17,9.242 14.758,7 12,7ZM12,9C13.652,9 15,10.348 15,12C15,13.652 13.652,15 12,15C10.348,15 9,13.652 9,12C9,10.348 10.348,9 12,9Z" style="fill:rgb(254,254,254);fill-rule:nonzero;"/>
            </g>
        </g>
    </g>
    <g transform="matrix(1,0,0,1,-1.55607,5.54782)">
        <text x="36.825px" y="14.002px" style="font-family:'HelveticaNeue-Medium', 'Helvetica Neue', sans-serif;font-weight:500;font-size:13px;fill:white;">Follow</text>
    </g>
    <defs>
        <linearGradient id="_Linear1" x1="0" y1="0" x2="1" y2="0" gradientUnits="userSpaceOnUse" gradientTransform="matrix(76.2429,41.5732,-13.5355,24.8233,4.38355,-11.4606)"><stop offset="0" style="stop-color:rgb(255,0,164);stop-opacity:1"/><stop offset="1" style="stop-color:rgb(255,102,0);stop-opacity:1"/></linearGradient>
    </defs>
</svg>
