<?xml version="1.0" encoding="UTF-8" standalone="no"?>
<!DOCTYPE svg PUBLIC "-//W3C//DTD SVG 1.1//EN" "http://www.w3.org/Graphics/SVG/1.1/DTD/svg11.dtd">
<svg width="100%" height="100%" viewBox="0 0 120 120" version="1.1" xmlns="http://www.w3.org/2000/svg" xmlns:xlink="http://www.w3.org/1999/xlink" xml:space="preserve" xmlns:serif="http://www.serif.com/" style="fill-rule:evenodd;clip-rule:evenodd;stroke-miterlimit:1.5;">
    <g id="adsr" transform="matrix(1,0,0,1,-424.449,-311.439)">
        <g transform="matrix(0.0994844,0,0,0.0994844,217.03,230.437)">
            <path d="M3070.87,1039.37L3070.87,1499.43" style="fill:none;stroke:black;stroke-width:38.21px;"/>
        </g>
        <g transform="matrix(0.0994844,0,0,0.0994844,217.03,264.262)">
            <path d="M3189.23,1181.1C3189.23,1167.91 3178.54,1157.22 3165.35,1157.22L2976.38,1157.22C2963.19,1157.22 2952.5,1167.91 2952.5,1181.1L2952.5,1251.97C2952.5,1265.16 2963.19,1275.85 2976.38,1275.85L3165.35,1275.85C3178.54,1275.85 3189.23,1265.16 3189.23,1251.97L3189.23,1181.1ZM3165.35,1181.1L2976.38,1181.1L2976.38,1251.97L3165.35,1251.97L3165.35,1181.1Z"/>
        </g>
        <g transform="matrix(1,0,0,1,354.516,251.101)">
            <path d="M168.017,157.938L168.017,140.069" style="fill:none;stroke:black;stroke-width:3.8px;stroke-linejoin:round;"/>
        </g>
        <g transform="matrix(0.0994844,0,0,0.131773,191.64,196.878)">
            <path d="M3070.87,1039.37L3070.87,1499.43" style="fill:none;stroke:black;stroke-width:32.56px;"/>
        </g>
        <g transform="matrix(0.0994844,0,0,0.0994844,191.64,277.964)">
            <path d="M3189.23,1181.1C3189.23,1167.91 3178.54,1157.22 3165.35,1157.22L2976.38,1157.22C2963.19,1157.22 2952.5,1167.91 2952.5,1181.1L2952.5,1251.97C2952.5,1265.16 2963.19,1275.85 2976.38,1275.85L3165.35,1275.85C3178.54,1275.85 3189.23,1265.16 3189.23,1251.97L3189.23,1181.1ZM3165.35,1181.1L2976.38,1181.1L2976.38,1251.97L3165.35,1251.97L3165.35,1181.1Z"/>
        </g>
        <g transform="matrix(1,0,0,0.365098,329.126,351.376)">
            <path d="M168.017,157.938L168.017,140.069" style="fill:none;stroke:black;stroke-width:5.05px;stroke-linejoin:round;"/>
        </g>
        <g transform="matrix(0.0994844,0,0,0.0744036,166.251,258.904)">
            <path d="M3070.87,1007.14L3070.87,1499.43" style="fill:none;stroke:black;stroke-width:43.27px;"/>
        </g>
        <g transform="matrix(0.0994844,0,0,0.0994844,166.251,253.938)">
            <path d="M3189.23,1181.1C3189.23,1167.91 3178.54,1157.22 3165.35,1157.22L2976.38,1157.22C2963.19,1157.22 2952.5,1167.91 2952.5,1181.1L2952.5,1251.97C2952.5,1265.16 2963.19,1275.85 2976.38,1275.85L3165.35,1275.85C3178.54,1275.85 3189.23,1265.16 3189.23,1251.97L3189.23,1181.1ZM3165.35,1181.1L2976.38,1181.1L2976.38,1251.97L3165.35,1251.97L3165.35,1181.1Z"/>
        </g>
        <g transform="matrix(1,0,0,1.63213,303.737,151.264)">
            <path d="M168.017,157.938L168.017,140.069" style="fill:none;stroke:black;stroke-width:2.81px;stroke-linejoin:round;"/>
        </g>
        <g transform="matrix(0.128879,0,0,0.128879,50.5954,199.886)">
            <path d="M3070.87,1039.37L3070.87,1499.43" style="fill:none;stroke:black;stroke-width:29.49px;"/>
        </g>
        <g transform="matrix(0.0994844,0,0,0.0994844,140.862,277.586)">
            <path d="M3189.23,1181.1C3189.23,1167.91 3178.54,1157.22 3165.35,1157.22L2976.38,1157.22C2963.19,1157.22 2952.5,1167.91 2952.5,1181.1L2952.5,1251.97C2952.5,1265.16 2963.19,1275.85 2976.38,1275.85L3165.35,1275.85C3178.54,1275.85 3189.23,1265.16 3189.23,1251.97L3189.23,1181.1ZM3165.35,1181.1L2976.38,1181.1L2976.38,1251.97L3165.35,1251.97L3165.35,1181.1Z"/>
        </g>
        <g transform="matrix(1,0,0,0.254324,278.348,368.872)">
            <path d="M168.017,157.938L168.017,140.069" style="fill:none;stroke:black;stroke-width:5.21px;stroke-linejoin:round;"/>
        </g>
    </g>
</svg>
