<?xml version="1.0" encoding="UTF-8" standalone="no"?>
<!DOCTYPE svg PUBLIC "-//W3C//DTD SVG 1.1//EN" "http://www.w3.org/Graphics/SVG/1.1/DTD/svg11.dtd">
<svg width="100%" height="100%" viewBox="0 0 120 120" version="1.1" xmlns="http://www.w3.org/2000/svg" xmlns:xlink="http://www.w3.org/1999/xlink" xml:space="preserve" xmlns:serif="http://www.serif.com/" style="fill-rule:evenodd;clip-rule:evenodd;stroke-linejoin:round;stroke-miterlimit:2;">
    <g id="Direct" transform="matrix(0.0438574,0,0,0.0438574,-28.0601,0.663386)">
        <path d="M1887.59,1042.34C1729.02,1093.2 1614.12,1241.95 1614.12,1417.32C1614.12,1634.64 1790.56,1811.08 2007.87,1811.08C2225.19,1811.08 2401.63,1634.64 2401.63,1417.32C2401.63,1372.97 2394.26,1330.32 2380.71,1290.52C2340.7,1172.97 2246.62,1080.33 2128.16,1042.33L2128.16,981.48C2128.16,933.616 2089.36,894.814 2041.5,894.814L1974.25,894.814C1926.39,894.814 1887.59,933.616 1887.59,981.48L1887.59,1042.34ZM2041.5,1112.11L2041.5,981.48L1974.25,981.48L1974.25,1112.08C1820.57,1128.82 1700.79,1259.19 1700.79,1417.32C1700.79,1586.81 1838.39,1724.41 2007.87,1724.41C2177.36,1724.41 2314.96,1586.81 2314.96,1417.32C2314.96,1382.74 2309.23,1349.48 2298.67,1318.45C2260.94,1207.6 2161.57,1125.16 2041.5,1112.11ZM1974.25,1112.08C1985.31,1110.85 1996.52,1110.24 2007.87,1110.24C2019.23,1110.24 2030.45,1110.85 2041.5,1112.11L2041.5,1339.21L1974.25,1339.21L1974.25,1112.08Z"/>
    </g>
</svg>
