<?xml version="1.0" encoding="UTF-8" standalone="no"?>
<!DOCTYPE svg PUBLIC "-//W3C//DTD SVG 1.1//EN" "http://www.w3.org/Graphics/SVG/1.1/DTD/svg11.dtd">
<svg width="100%" height="100%" viewBox="0 0 120 120" version="1.1" xmlns="http://www.w3.org/2000/svg" xmlns:xlink="http://www.w3.org/1999/xlink" xml:space="preserve" xmlns:serif="http://www.serif.com/" style="fill-rule:evenodd;clip-rule:evenodd;stroke-linecap:round;stroke-linejoin:round;stroke-miterlimit:1.5;">
    <g id="Keytrack" transform="matrix(0.0994844,0,0,0.0994844,-139.752,-75.1328)">
        <g transform="matrix(1,0,0,1,94.4882,0)">
            <g transform="matrix(0.84,0,0,1.25,226.772,-295.276)">
                <rect x="1417.32" y="1181.1" width="1181.1" height="377.953" style="fill:none;stroke:black;stroke-width:22.42px;"/>
            </g>
            <path d="M1842.52,1181.1L1842.52,1653.54" style="fill:none;stroke:black;stroke-width:23.88px;"/>
            <g transform="matrix(1,0,0,0.4,0,992.126)">
                <path d="M1984.25,1181.1L1984.25,1653.54" style="fill:none;stroke:black;stroke-width:31.35px;stroke-linecap:butt;"/>
                <path d="M2125.98,1181.1L2125.98,1653.54" style="fill:none;stroke:black;stroke-width:31.35px;stroke-linecap:butt;"/>
                <path d="M2267.72,1181.1L2267.72,1653.54" style="fill:none;stroke:black;stroke-width:31.35px;stroke-linecap:butt;"/>
            </g>
            <rect x="1511.81" y="1181.1" width="83.087" height="283.465" style="fill:none;stroke:black;stroke-width:23.88px;"/>
            <rect x="1511.81" y="1181.1" width="83.087" height="283.465" style="fill:none;stroke:black;stroke-width:23.88px;"/>
            <rect x="1663.4" y="1181.1" width="84.634" height="283.465" style="fill:none;stroke:black;stroke-width:23.88px;"/>
            <rect x="1663.4" y="1181.1" width="84.634" height="283.465" style="fill:none;stroke:black;stroke-width:23.88px;"/>
            <rect x="1937.01" y="1181.1" width="82.268" height="283.465" style="fill:none;stroke:black;stroke-width:23.88px;"/>
            <rect x="1937.01" y="1181.1" width="82.268" height="283.465" style="fill:none;stroke:black;stroke-width:23.88px;"/>
            <rect x="2092.04" y="1181.1" width="81.19" height="283.465" style="fill:none;stroke:black;stroke-width:23.88px;"/>
            <rect x="2092.04" y="1181.1" width="81.19" height="283.465" style="fill:none;stroke:black;stroke-width:23.88px;"/>
            <rect x="2232.1" y="1181.1" width="82.859" height="283.465" style="fill:none;stroke:black;stroke-width:23.88px;"/>
            <rect x="2232.1" y="1181.1" width="82.859" height="283.465" style="fill:none;stroke:black;stroke-width:23.88px;"/>
            <g transform="matrix(10.0518,0,0,10.0518,578.836,148.719)">
                <path d="M107.897,130.906L111.617,130.906L111.617,149.707L97.516,149.707L97.516,130.906L101.082,130.906L101.082,102.706L107.897,102.706L107.897,130.906Z" style="fill:none;stroke:black;stroke-width:2.38px;"/>
            </g>
        </g>
        <g transform="matrix(1,0,0,3.09055,2.27374e-13,-2236.19)">
            <path d="M1548.73,1078.02L1561.28,1082.07L1547.24,1086.61L1511.81,1075.15L1547.24,1063.68L1561.28,1068.22L1548.73,1072.28L2470.02,1072.28L2455.98,1067.74L2468.5,1063.68L2503.94,1075.15L2468.5,1086.61L2455.98,1082.56L2470.02,1078.02L1548.73,1078.02Z"/>
        </g>
    </g>
</svg>
