<?xml version="1.0" encoding="UTF-8" standalone="no"?>
<!DOCTYPE svg PUBLIC "-//W3C//DTD SVG 1.1//EN" "http://www.w3.org/Graphics/SVG/1.1/DTD/svg11.dtd">
<svg width="100%" height="100%" viewBox="0 0 120 120" version="1.1" xmlns="http://www.w3.org/2000/svg" xmlns:xlink="http://www.w3.org/1999/xlink" xml:space="preserve" xmlns:serif="http://www.serif.com/" style="fill-rule:evenodd;clip-rule:evenodd;stroke-linejoin:round;stroke-miterlimit:2;">
    <g id="Macro" transform="matrix(0.0765265,0,0,0.0765265,-93.6555,-48.4627)">
        <path d="M2007.87,1060.57C1810.98,1060.57 1651.12,1220.42 1651.12,1417.32C1651.12,1614.22 1810.98,1774.08 2007.87,1774.08C2204.77,1774.08 2364.63,1614.22 2364.63,1417.32C2364.63,1220.42 2204.77,1060.57 2007.87,1060.57ZM2007.87,1110.24C2177.36,1110.24 2314.96,1247.84 2314.96,1417.32C2314.96,1586.81 2177.36,1724.41 2007.87,1724.41C1838.39,1724.41 1700.79,1586.81 1700.79,1417.32C1700.79,1247.84 1838.39,1110.24 2007.87,1110.24ZM2041.5,1137.48L1974.25,1137.48L1974.25,1339.21L2041.5,1339.21L2041.5,1137.48Z"/>
    </g>
</svg>
