<?xml version="1.0" encoding="UTF-8" standalone="no"?>
<!DOCTYPE svg PUBLIC "-//W3C//DTD SVG 1.1//EN" "http://www.w3.org/Graphics/SVG/1.1/DTD/svg11.dtd">
<svg width="100%" height="100%" viewBox="0 0 120 120" version="1.1" xmlns="http://www.w3.org/2000/svg" xmlns:xlink="http://www.w3.org/1999/xlink" xml:space="preserve" xmlns:serif="http://www.serif.com/" style="fill-rule:evenodd;clip-rule:evenodd;stroke-linecap:round;stroke-linejoin:round;stroke-miterlimit:1.5;">
    <g id="Osc" transform="matrix(0.0663229,0,0,0.0663229,-71.6014,-34.001)">
        <path d="M2362.2,1417.32L1417.32,1889.76L1417.32,944.882L2362.2,1417.32Z" style="fill:none;stroke:black;stroke-width:35.82px;"/>
        <g transform="matrix(3.43861,0,0,3.43861,-10222.3,-13351.1)">
            <path d="M3522.39,4157.48L3522.39,4225.18" style="fill:none;stroke:black;stroke-width:10.42px;stroke-linecap:butt;"/>
        </g>
        <g transform="matrix(1,0,0,1,-236.22,94.4882)">
            <circle cx="2692.91" cy="1322.84" r="94.488" style="fill:none;stroke:black;stroke-width:35.82px;"/>
        </g>
        <path d="M1559.06,1464.57C1559.06,1464.57 1569.05,1322.84 1653.54,1322.84C1738.04,1322.84 1748.03,1417.35 1748.03,1417.35C1748.03,1417.35 1763.7,1512.91 1842.52,1512.32C1921.34,1511.72 1937.01,1370.08 1937.01,1370.08" style="fill:none;stroke:black;stroke-width:57.31px;"/>
    </g>
</svg>
