<?xml version="1.0" encoding="UTF-8" standalone="no"?>
<!DOCTYPE svg PUBLIC "-//W3C//DTD SVG 1.1//EN" "http://www.w3.org/Graphics/SVG/1.1/DTD/svg11.dtd">
<svg width="100%" height="100%" viewBox="0 0 120 120" version="1.1" xmlns="http://www.w3.org/2000/svg" xmlns:xlink="http://www.w3.org/1999/xlink" xml:space="preserve" xmlns:serif="http://www.serif.com/" style="fill-rule:evenodd;clip-rule:evenodd;stroke-linejoin:round;stroke-miterlimit:1.5;">
    <g id="Sampler" transform="matrix(0.228058,0,0,0.228058,-410.874,-111.401)">
        <g transform="matrix(1,0,0,0.818336,0,136.532)">
            <rect x="1889.76" y="614.173" width="330.709" height="274.786" style="fill:none;stroke:black;stroke-width:11.4px;"/>
        </g>
        <g transform="matrix(0.290816,0,0,0.290816,1464.81,371.205)">
            <circle cx="2692.91" cy="1322.84" r="94.488" style="fill:none;stroke:black;stroke-width:35.82px;stroke-linecap:round;"/>
        </g>
        <g transform="matrix(1,0,0,0.74384,0,192.183)">
            <path d="M1937.01,755.906L1960.33,708.661L1984.25,779.045L2012.03,650.097L2031.5,850.394L2055.12,724.088C2055.12,724.088 2058.05,750.693 2078.74,755.906C2099.43,761.118 2096.34,706.283 2107.73,728.427C2119.12,750.571 2125.98,764.363 2125.98,764.363L2150.45,739.43L2173.23,751.566" style="fill:none;stroke:black;stroke-width:18.91px;"/>
        </g>
    </g>
</svg>
